<svg xmlns="http://www.w3.org/2000/svg" width="14" height="14" viewBox="0 0 14 14" fill="none">
  <g clip-path="url(#clip0_1552_22457)">
    <path d="M7.48997 1.08998L9.07997 4.29998C9.11613 4.38146 9.17302 4.45203 9.24496 4.50467C9.3169 4.5573 9.40137 4.59017 9.48997 4.59998L13 5.11998C13.1016 5.13304 13.1974 5.17475 13.2762 5.24024C13.355 5.30572 13.4136 5.39227 13.4451 5.48979C13.4765 5.58731 13.4796 5.69177 13.4539 5.79096C13.4282 5.89015 13.3748 5.97999 13.3 6.04998L10.77 8.55998C10.7054 8.62031 10.6569 8.69582 10.629 8.77965C10.6011 8.86349 10.5945 8.95298 10.61 9.03998L11.22 12.57C11.2376 12.6714 11.2265 12.7758 11.1878 12.8712C11.149 12.9666 11.0843 13.0492 11.001 13.1096C10.9176 13.17 10.819 13.2059 10.7162 13.213C10.6135 13.2201 10.5109 13.1983 10.42 13.15L7.25997 11.48C7.17906 11.4403 7.09011 11.4196 6.99997 11.4196C6.90983 11.4196 6.82089 11.4403 6.73997 11.48L3.57997 13.15C3.48906 13.1983 3.38641 13.2201 3.2837 13.213C3.18099 13.2059 3.08234 13.17 2.99899 13.1096C2.91563 13.0492 2.85091 12.9666 2.81219 12.8712C2.77347 12.7758 2.76231 12.6714 2.77997 12.57L3.38997 8.99998C3.40543 8.91298 3.39889 8.82349 3.37095 8.73966C3.343 8.65582 3.29454 8.58031 3.22997 8.51998L0.669972 6.04998C0.594235 5.97808 0.540972 5.88575 0.516636 5.78419C0.4923 5.68264 0.497936 5.5762 0.532859 5.47778C0.567783 5.37936 0.630496 5.29318 0.713403 5.22967C0.79631 5.16617 0.895852 5.12806 0.999972 5.11998L4.50997 4.59998C4.59857 4.59017 4.68305 4.5573 4.75499 4.50467C4.82692 4.45203 4.88381 4.38146 4.91997 4.29998L6.50997 1.08998C6.55327 0.996489 6.62241 0.917336 6.70924 0.861864C6.79606 0.806392 6.89694 0.776917 6.99997 0.776917C7.103 0.776917 7.20388 0.806392 7.29071 0.861864C7.37753 0.917336 7.44667 0.996489 7.48997 1.08998V1.08998Z" fill="black" stroke="#000001" stroke-linecap="round" stroke-linejoin="round"/>
  </g>
  <defs>
    <clipPath id="clip0_1552_22457">
      <rect width="14" height="14" fill="white"/>
    </clipPath>
  </defs>
</svg>